<?xml version="1.0" encoding="UTF-8"?><svg id="manomay-vector" xmlns="http://www.w3.org/2000/svg" viewBox="0 0 1080 1080"><defs><style>.cls-1{stroke-width:0px;}</style></defs><circle class="cls-1" cx="651.76" cy="282.76" r="77.68"/><circle class="cls-1" cx="408.04" cy="327.59" r="63.42"/><path class="cls-1" d="m281.82,460.6c13.49-24.92,36.58-48.25,65.63-52.5,65.96-9.65,100.49,70.82,165.69,69.76,55.45-.9,100.67-43.71,144.91-71.4,10.87-6.8,21.28-16.31,32.67-21.71,19.79-9.37,45.47-11.02,65.54-2.03,24.99,11.2,35.88,35.18,46.05,58.58,21.51,49.47,27.96,93.97,26,147.78-2.9,79.7-33.69,158.22-76.02,225.08-18.61,29.4-52.79,70.04-93.16,58.88-49.43-13.67-38.43-73.83-19.97-106.88,21.91-39.21,40.91-80.43,52.47-123.95,10.84-40.81,14.42-83.89,4.73-125.47-1.58-6.77-5.23-21.47-14.39-21.92-7.75-.38-19.08,14.25-24.04,19.4-30.64,31.83-62.95,60.36-107.94,68.76-38.07,7.11-79.22-.06-111.33-21.49-16.84-11.24-31.27-25.78-43.78-41.62-7.52-9.52-13.52-15.28-20.39-1.73-6.18,12.21-7.83,26.51-7.84,40.02-.02,31.33,2.83,61.92,13.13,91.61,8.98,25.87,21.74,49.8,35.16,73.57,10.52,18.64,22.33,37.76,26.74,58.98,3.11,14.99,1.03,36.51-8.93,48.86-13.85,17.16-37.82,17.34-56.54,9.65-17.55-7.21-32.51-20.09-45.21-33.94-38.83-42.36-62.53-99.31-73.4-155.19-12.47-64.15-7.29-132.96,24.19-191.11Z"/></svg>